<?xml version="1.0" standalone="no"?><!DOCTYPE svg PUBLIC "-//W3C//DTD SVG 1.1//EN" "http://www.w3.org/Graphics/SVG/1.1/DTD/svg11.dtd"><svg t="1697790055946" class="icon" viewBox="0 0 1024 1024" version="1.1" xmlns="http://www.w3.org/2000/svg" p-id="4011" width="200" height="200" xmlns:xlink="http://www.w3.org/1999/xlink"><path d="M690.848 544h-306.752a31.968 31.968 0 1 1 0-64h306.752l-41.28-41.28a32 32 0 1 1 45.12-45.44l96 96a32 32 0 0 1 0 45.12l-96 96a32 32 0 0 1-45.12-45.12l41.28-41.28z m-178.784 96a32 32 0 0 1 64 0v64c0 35.328-28.896 64-64.096 64H288.096A64.128 64.128 0 0 1 224 703.776V320.224A64.32 64.32 0 0 1 288.096 256h223.872c35.264 0 64.096 28.704 64.096 63.68V384a32 32 0 0 1-64 0l-0.096-64L288 320.224 288.096 704s223.968-0.128 223.968 0v-64z" fill="#101010" p-id="4012"></path></svg>